<svg id="Layer_1" height="512" viewBox="0 0 512 512" width="512" xmlns="http://www.w3.org/2000/svg" data-name="Layer 1"><path d="m178.028 493.076a6 6 0 0 0 12 0c0-54.436 31.534-82.338 65.972-110.769 34.438 28.431 65.972 56.333 65.972 110.769a6 6 0 0 0 12 0c0-58.921-33.934-89.885-68.546-118.545 34.612-28.66 68.546-59.625 68.546-118.545s-33.933-89.88-68.546-118.539c34.613-28.659 68.546-59.622 68.546-118.539a6 6 0 0 0 -12 0c0 54.433-31.534 82.334-65.972 110.763-34.438-28.429-65.972-56.33-65.972-110.763a6 6 0 1 0 -12 0c0 58.917 33.933 89.88 68.546 118.539-34.613 28.659-68.546 59.622-68.546 118.539s33.934 89.885 68.546 118.545c-34.612 28.66-68.546 59.624-68.546 118.545zm12-237.09c0-54.433 31.534-82.334 65.972-110.762 34.438 28.428 65.972 56.329 65.972 110.762s-31.534 82.338-65.972 110.769c-34.438-28.431-65.972-56.333-65.972-110.769z"/><path d="m314 257a6 6 0 0 0 -6-6h-104a6 6 0 0 0 0 12h104a6 6 0 0 0 6-6z"/><path d="m216 223h80a6 6 0 0 0 0-12h-80a6 6 0 0 0 0 12z"/><path d="m302 297a6 6 0 0 0 -6-6h-80a6 6 0 0 0 0 12h80a6 6 0 0 0 6-6z"/><path d="m246 183h20a6 6 0 0 0 0-12h-20a6 6 0 0 0 0 12z"/><path d="m266 343a6 6 0 0 0 0-12h-20a6 6 0 0 0 0 12z"/><path d="m204 27h104a6 6 0 0 0 0-12h-104a6 6 0 0 0 0 12z"/><path d="m302 61a6 6 0 0 0 -6-6h-80a6 6 0 0 0 0 12h80a6 6 0 0 0 6-6z"/><path d="m246 95a6 6 0 0 0 0 12h20a6 6 0 0 0 0-12z"/><path d="m198 491a6 6 0 0 0 6 6h104a6 6 0 0 0 0-12h-104a6 6 0 0 0 -6 6z"/><path d="m210 451a6 6 0 0 0 6 6h80a6 6 0 0 0 0-12h-80a6 6 0 0 0 -6 6z"/><path d="m266 417a6 6 0 0 0 0-12h-20a6 6 0 0 0 0 12z"/></svg>