<svg height="512pt" viewBox="-74 0 512 512" width="512pt" xmlns="http://www.w3.org/2000/svg"><path d="m361.414062 443.589844-108.269531-263.902344c-6.003906-14.640625-9.050781-30.085938-9.050781-45.910156v-69.757813c0-7.511719 2.925781-14.574219 8.238281-19.886719 6.476563-6.476562 10.046875-15.089843 10.046875-24.25v-9.882812c0-5.523438-4.480468-10-10-10h-139.621094c-5.523437 0-10 4.476562-10 10v9.882812c0 9.160157 3.566407 17.773438 10.042969 24.25 5.3125 5.3125 8.238281 12.375 8.238281 19.890626v69.753906c0 15.824218-3.042968 31.269531-9.050781 45.910156l-29.75 72.515625c-.011719.027344-.023437.054687-.035156.082031l-78.484375 191.304688c-6.285156 15.324218-4.53125 32.6875 4.695312 46.441406 9.226563 13.757812 24.621094 21.96875 41.183594 21.96875h265.9375c16.5625 0 31.960938-8.210938 41.1875-21.96875 9.222656-13.757812 10.976563-31.117188 4.691406-46.441406zm-230.921874-256.3125c7-17.058594 10.546874-35.058594 10.546874-53.5v-69.757813c0-12.851562-5.003906-24.9375-14.09375-34.027343-2.671874-2.671876-4.15625-6.21875-4.1875-9.992188h119.621094c-.03125 3.773438-1.515625 7.316406-4.191406 9.992188-9.085938 9.089843-14.09375 21.171874-14.09375 34.027343v69.753907c0 18.441406 3.550781 36.441406 10.546875 53.5l24.144531 58.851562h-152.4375zm209.617187 291.613281c-5.585937 8.332031-14.542969 13.109375-24.574219 13.109375h-265.9375c-10.027344 0-18.984375-4.777344-24.574218-13.109375-4.214844-6.285156-5.824219-13.574219-4.730469-20.761719h16.476562c5.519531 0 10-4.480468 10-10 0-5.523437-4.480469-10-10-10h-9.1875l11.484375-28h16.867188c5.523437 0 10-4.480468 10-10 0-5.523437-4.476563-10-10-10h-8.660156l11.484374-28h17.34375c5.523438 0 10-4.480468 10-10 0-5.523437-4.476562-10-10-10h-9.136718l11.488281-28h17.8125c5.523437 0 10-4.480468 10-10 0-5.523437-4.476563-10-10-10h-9.609375l11.488281-28h168.84375l75.921875 185.054688c3.804688 9.277344 2.785156 19.378906-2.800781 27.707031zm0 0"/><path d="m312.03125 444.214844c-2.09375-5.113282-7.929688-7.558594-13.042969-5.46875-5.109375 2.09375-7.558593 7.929687-5.46875 13.042968l.054688.125c1.585937 3.871094 5.316406 6.214844 9.257812 6.214844 1.261719 0 2.542969-.238281 3.785157-.746094 5.109374-2.09375 7.558593-7.933593 5.464843-13.042968zm0 0"/><path d="m297.898438 409.761719-35.8125-87.289063c-2.09375-5.109375-7.933594-7.554687-13.046876-5.457031-5.109374 2.09375-7.550781 7.9375-5.457031 13.046875l35.8125 87.289062c1.585938 3.871094 5.316407 6.207032 9.257813 6.207032 1.261718 0 2.546875-.238282 3.789062-.75 5.109375-2.09375 7.554688-7.9375 5.457032-13.046875zm0 0"/></svg>