<?xml version="1.0" encoding="iso-8859-1"?>
<!-- Generator: Adobe Illustrator 19.0.0, SVG Export Plug-In . SVG Version: 6.00 Build 0)  -->
<svg version="1.1" id="Capa_1" xmlns="http://www.w3.org/2000/svg" xmlns:xlink="http://www.w3.org/1999/xlink" x="0px" y="0px"
	 viewBox="0 0 247.789 247.789" style="enable-background:new 0 0 247.789 247.789;" xml:space="preserve">
<path d="M223.779,122.895c-3.313,0-6,2.687-6,6v106.895h-64.384v-67.102c0-3.313-2.687-6-6-6h-47c-3.313,0-6,2.687-6,6v53.207
	c0,3.313,2.687,6,6,6s6-2.687,6-6v-47.207h35v61.102H30.01V88.929l93.884-75.239l96.132,77.04c2.586,2.073,6.362,1.655,8.434-0.93
	c2.072-2.586,1.656-6.361-0.93-8.434L127.646,1.318c-2.192-1.758-5.312-1.758-7.504,0L20.258,81.366
	c-1.421,1.139-2.248,2.86-2.248,4.682v155.741c0,3.313,2.686,6,6,6h199.769c3.314,0,6-2.687,6-6V128.895
	C229.779,125.581,227.093,122.895,223.779,122.895z"/>
<g>
</g>
<g>
</g>
<g>
</g>
<g>
</g>
<g>
</g>
<g>
</g>
<g>
</g>
<g>
</g>
<g>
</g>
<g>
</g>
<g>
</g>
<g>
</g>
<g>
</g>
<g>
</g>
<g>
</g>
</svg>
